<svg xmlns="http://www.w3.org/2000/svg" xmlns:xlink="http://www.w3.org/1999/xlink" version="1.1" x="0px" y="0px" viewBox="0 0 64 80" style="enable-background:new 0 0 64 64;" xml:space="preserve"><path d="M57,2H7C4.243,2,2,4.243,2,7v37c0,2.757,2.243,5,5,5h16.461l-3.111,7H10c-0.553,0-1,0.448-1,1c0,2.757,2.243,5,5,5h36  c2.757,0,5-2.243,5-5c0-0.552-0.447-1-1-1H43.65l-3.111-7H57c2.757,0,5-2.243,5-5V7C62,4.243,59.757,2,57,2z M7,4h50  c1.654,0,3,1.346,3,3v33H4V7C4,5.346,5.346,4,7,4z M50,60H14c-1.304,0-2.416-0.836-2.829-2H21h22h9.829  C52.416,59.164,51.304,60,50,60z M41.461,56H22.539l3.11-7h12.701L41.461,56z M57,47H39H25H7c-1.654,0-3-1.346-3-3v-2h56v2  C60,45.654,58.654,47,57,47z"/><path d="M9.293,12.707l1.414-1.414L8.414,9l2.293-2.293L9.293,5.293l-3,3c-0.391,0.391-0.391,1.023,0,1.414L9.293,12.707z"/><path d="M18.707,12.707l3-3c0.391-0.391,0.391-1.023,0-1.414l-3-3l-1.414,1.414L19.586,9l-2.293,2.293L18.707,12.707z"/><path d="M30.707,31.707l3-3c0.391-0.391,0.391-1.023,0-1.414l-3-3l-1.414,1.414L31.586,28l-2.293,2.293L30.707,31.707z"/><path d="M40.586,34l-2.293,2.293l1.414,1.414l3-3c0.391-0.391,0.391-1.023,0-1.414l-3-3l-1.414,1.414L40.586,34z"/><rect x="12" y="11" width="4" height="2"/><rect x="12" y="16" width="4" height="2"/><rect x="18" y="16" width="21" height="2"/><rect x="12" y="21" width="4" height="2"/><rect x="18" y="21" width="17" height="2"/><rect x="14" y="29" width="4" height="2"/><rect x="20" y="29" width="8" height="2"/><rect x="14" y="34" width="4" height="2"/><rect x="20" y="34" width="17" height="2"/><rect x="6" y="14" width="2" height="24"/><rect x="10" y="27" width="2" height="11"/><path d="M42,20h15c0.553,0,1-0.448,1-1V7c0-0.552-0.447-1-1-1H42c-0.553,0-1,0.448-1,1v12C41,19.552,41.447,20,42,20z M43,8h13v10  H43V8z"/><path d="M57,22H46c-0.553,0-1,0.448-1,1v11c0,0.552,0.447,1,1,1h11c0.553,0,1-0.448,1-1V23C58,22.448,57.553,22,57,22z M56,33h-9v-9  h9V33z"/></svg>